<svg id="Layer_1" data-name="Layer 1" xmlns="http://www.w3.org/2000/svg" viewBox="0 0 554 522"><defs><style>.cls-1,.cls-3{fill:#fff;}.cls-1{stroke:#00549c;stroke-miterlimit:10;stroke-width:5px;}.cls-2{fill:#00549c;}</style></defs><title>10t</title><circle class="cls-1" cx="277" cy="261" r="239.46"/><circle class="cls-2" cx="277" cy="261" r="202.92"/><path class="cls-3" d="M206.74,197.74v124.4H180V228a32,32,0,0,1-5.22,3.69,53.56,53.56,0,0,1-6.4,3.14,58.37,58.37,0,0,1-7,2.38,52.35,52.35,0,0,1-7.21,1.4V216a110.92,110.92,0,0,0,19.69-7.8,112.57,112.57,0,0,0,16.71-10.44Z"/><path class="cls-3" d="M285.4,324.26q-43.44,0-43.45-61,0-31.65,11.76-48.24t34.07-16.59q42.42,0,42.42,62,0,30.89-11.58,47.35T285.4,324.26Zm1.19-105.39q-17.4,0-17.4,43.7,0,41.16,17.06,41.15,16.63,0,16.63-42.42T286.59,218.87Z"/><path class="cls-3" d="M399.87,321.12q-5.94,3.13-17.91,3.14-28.33,0-28.34-29.45V255H339.54V235.25h14.08V216.49l26.73-7.63v26.39h19.52V255H380.35v35.13q0,13.58,10.78,13.57a18.17,18.17,0,0,0,8.74-2.46Z"/></svg>